<svg preserveAspectRatio="none" width="100%" height="100%" overflow="visible" style="display: block;" viewBox="0 0 66.6667 66.6667" fill="none" xmlns="http://www.w3.org/2000/svg">
<path id="Email Icon" fill-rule="evenodd" clip-rule="evenodd" d="M66.6667 66.6667H0V0H66.6667V66.6667ZM42.1784 34.5312C42.157 34.5312 41.3041 35.3042 40.2832 36.2493C38.3422 38.0465 37.7493 38.4895 36.64 38.9727C35.6265 39.414 34.8835 39.5753 33.6198 39.6276C32.3591 39.6797 31.8116 39.6065 30.6243 39.2272C29.154 38.7575 28.5209 38.3174 26.224 36.1673C25.2626 35.2673 24.4715 34.5312 24.4661 34.5312C24.434 34.5565 21.3751 37.4271 17.6458 40.9323L10.8353 47.3333H33.3262C45.6962 47.3333 55.8007 47.3156 55.7806 47.2943C55.559 47.0596 42.2615 34.5826 42.1784 34.5312ZM10 45.8874L16.6354 39.6517C20.2793 36.2274 23.2619 33.4183 23.2708 33.4017C23.2708 33.3843 10.7817 21.6577 10.3158 21.2376L10 20.9531V45.8874ZM56.6445 20.9036C56.6207 20.9153 53.6393 23.7028 50.0091 27.1074C46.3718 30.5188 43.3958 33.334 43.3958 33.3633C43.3978 33.3943 46.3832 36.2234 50.0312 39.6517L56.6667 45.8874V33.3952C56.6667 26.5243 56.6567 20.9031 56.6445 20.9036ZM10.6589 19.334L20.0625 28.1615C30.193 37.6713 29.714 37.2575 31.2259 37.8008C32.0395 38.0931 33.601 38.1705 34.6322 37.97C35.4866 37.8039 36.4712 37.3815 37.1322 36.8971C37.4112 36.6928 41.7525 32.6576 46.7793 27.9297L55.9193 19.3333L10.6589 19.334Z" fill="var(--fill-0, white)" fill-opacity="0.92"/>
</svg>
