<svg preserveAspectRatio="none" width="100%" height="100%" overflow="visible" style="display: block;" viewBox="0 0 1360 143.999" fill="none" xmlns="http://www.w3.org/2000/svg">
<g id="Logo">
<path d="M876.257 0C883.428 0 890.279 0.835199 896.81 2.50586C903.468 4.04802 909.359 6.61842 914.481 10.2168C919.603 13.8151 923.637 18.4413 926.582 24.0957C929.655 29.6218 931.192 36.3691 931.192 44.3369H901.996C901.74 40.2246 900.843 36.8189 899.307 34.1201C897.898 31.4213 895.977 29.3009 893.544 27.7588C891.111 26.2167 888.294 25.124 885.093 24.4814C882.019 23.8389 878.626 23.5176 874.912 23.5176C872.479 23.5176 870.046 23.7741 867.613 24.2881C865.18 24.8021 862.939 25.7023 860.891 26.9873C858.97 28.2724 857.368 29.8789 856.088 31.8066C854.807 33.7343 854.167 36.1761 854.167 39.1318C854.167 41.8306 854.68 44.0158 855.704 45.6865C856.729 47.357 858.713 48.899 861.658 50.3125C864.731 51.7261 868.893 53.1401 874.144 54.5537C879.522 55.9674 886.501 57.7664 895.081 59.9512C897.642 60.4652 901.164 61.4291 905.646 62.8428C910.255 64.1279 914.801 66.2483 919.283 69.2041C923.765 72.1599 927.607 76.1442 930.809 81.1562C934.138 86.0396 935.803 92.3365 935.803 100.047C935.803 106.344 934.586 112.191 932.153 117.589C929.72 122.986 926.07 127.677 921.204 131.661C916.466 135.516 910.512 138.537 903.341 140.722C896.298 142.906 888.102 143.999 878.754 143.999C871.199 143.999 863.835 143.035 856.664 141.107C849.621 139.308 843.347 136.416 837.841 132.433C832.463 128.449 828.172 123.373 824.971 117.204C821.769 111.035 820.232 103.709 820.36 95.2275H849.558C849.558 99.854 850.39 103.774 852.055 106.987C853.719 110.2 855.896 112.835 858.585 114.891C861.402 116.818 864.668 118.296 868.382 119.324C872.095 120.224 875.937 120.674 879.906 120.674C882.595 120.674 885.477 120.481 888.55 120.096C891.623 119.582 894.505 118.682 897.194 117.396C899.883 116.111 902.124 114.376 903.917 112.191C905.71 109.878 906.605 106.987 906.605 103.518C906.605 99.7907 905.389 96.7703 902.956 94.457C900.651 92.1438 897.578 90.216 893.736 88.6738C889.895 87.1317 885.541 85.7826 880.675 84.626C875.809 83.4694 870.879 82.1841 865.885 80.7705C860.763 79.4854 855.768 77.9427 850.902 76.1436C846.036 74.2159 841.682 71.7741 837.841 68.8184C833.999 65.8627 830.862 62.2003 828.429 57.8311C826.124 53.3331 824.971 47.9349 824.971 41.6377C824.971 34.5695 826.443 28.4647 829.389 23.3242C832.462 18.0554 836.432 13.6866 841.298 10.2168C846.164 6.74693 851.671 4.17654 857.817 2.50586C863.964 0.835253 870.11 3.86897e-06 876.257 0Z" fill="var(--fill-0, white)" fill-opacity="0.72"/>
<path d="M1015.21 0C1022.25 0 1029.04 1.09164 1035.57 3.27637C1042.23 5.33257 1048.19 8.41698 1053.44 12.5293C1058.81 16.6417 1063.23 21.7187 1066.69 27.7588C1070.15 33.7987 1072.26 40.7382 1073.03 48.5771H1044.22C1042.42 40.8665 1038.97 35.0839 1033.84 31.2285C1028.72 27.3732 1022.51 25.4453 1015.21 25.4453C1008.43 25.4453 1002.66 26.7945 997.925 29.4932C993.187 32.0634 989.345 35.5977 986.399 40.0957C983.454 44.4651 981.278 49.4773 979.869 55.1318C978.589 60.7864 977.948 66.6337 977.948 72.6738C977.948 78.4569 978.589 84.1116 979.869 89.6377C981.278 95.0351 983.454 99.9187 986.399 104.288C989.345 108.658 993.187 112.192 997.925 114.891C1002.66 117.461 1008.43 118.746 1015.21 118.746C1025.2 118.746 1032.88 116.24 1038.26 111.228C1043.77 106.087 1046.97 98.698 1047.87 89.0596H1017.52V66.5049H1075.14V140.914H1055.93L1052.86 125.3C1047.48 132.239 1041.53 137.124 1035 139.951C1028.47 142.65 1021.87 143.999 1015.21 143.999C1004.71 143.999 995.236 142.2 986.784 138.602C978.461 134.875 971.418 129.798 965.655 123.372C959.893 116.946 955.475 109.429 952.401 100.818C949.328 92.0794 947.791 82.6979 947.791 72.6738C947.791 62.3928 949.328 52.8825 952.401 44.1436C955.475 35.2763 959.893 27.5658 965.655 21.0117C971.418 14.4576 978.461 9.31672 986.784 5.58984C995.236 1.86305 1004.71 2.29129e-05 1015.21 0Z" fill="var(--fill-0, white)" fill-opacity="0.72"/>
<path fill-rule="evenodd" clip-rule="evenodd" d="M745.792 3.27637C754.628 3.27637 762.824 4.69028 770.379 7.51758C778.062 10.3448 784.657 14.5858 790.163 20.2402C795.798 25.8948 800.151 32.9634 803.225 41.4453C806.426 49.9271 808.027 59.8867 808.027 71.3242C808.027 81.3481 806.747 90.6012 804.186 99.083C801.624 107.565 797.719 114.891 792.469 121.06C787.347 127.228 780.88 132.112 773.068 135.71C765.385 139.18 756.293 140.914 745.792 140.914H686.631V3.27637H745.792ZM716.788 115.469H743.68C748.033 115.469 752.259 114.762 756.356 113.349C760.454 111.935 764.104 109.621 767.306 106.408C770.507 103.067 773.068 98.7621 774.989 93.4932C776.91 88.2241 777.87 81.7981 777.87 74.2158C777.87 67.2762 777.165 61.0436 775.757 55.5176C774.476 49.863 772.3 45.0435 769.227 41.0596C766.153 37.0756 762.055 34.0552 756.933 31.999C751.939 29.8144 745.728 28.7227 738.301 28.7227H716.788V115.469Z" fill="var(--fill-0, white)" fill-opacity="0.72"/>
<path d="M1186.7 95.6133H1187.09V3.27637H1215.32V140.914H1185.17L1128.12 48.7705H1127.73V140.914H1099.5V3.27637H1129.46L1186.7 95.6133Z" fill="var(--fill-0, white)" fill-opacity="0.72"/>
<path fill-rule="evenodd" clip-rule="evenodd" d="M1315.82 3.27637C1321.97 3.27637 1327.47 4.30511 1332.34 6.36133C1337.33 8.28897 1341.56 10.9874 1345.02 14.457C1348.6 17.9268 1351.29 21.9752 1353.08 26.6016C1355.01 31.0994 1355.97 35.983 1355.97 41.252C1355.97 49.3483 1354.24 56.353 1350.78 62.2646C1347.45 68.1761 1341.94 72.6735 1334.26 75.7578V76.1436C1337.97 77.1717 1341.05 78.7782 1343.48 80.9629C1345.91 83.0191 1347.9 85.5257 1349.44 88.4814C1350.97 91.3087 1352.06 94.457 1352.7 97.9268C1353.47 101.396 1353.98 104.866 1354.24 108.336C1354.37 110.521 1354.49 113.091 1354.62 116.047C1354.75 119.003 1354.94 122.023 1355.2 125.107C1355.58 128.192 1356.1 131.147 1356.74 133.975C1357.5 136.673 1358.59 138.986 1360 140.914H1329.84C1328.18 136.545 1327.15 131.34 1326.77 125.3C1326.39 119.26 1325.81 113.477 1325.04 107.951C1324.02 100.754 1321.84 95.4849 1318.51 92.1436C1315.18 88.8022 1309.74 87.1319 1302.18 87.1318H1272.03V140.914H1241.87V3.27637H1315.82ZM1272.03 65.541H1305.06C1311.98 65.541 1317.17 63.9992 1320.62 60.915C1324.08 57.8307 1325.81 52.8186 1325.81 45.8789C1325.81 39.1962 1324.08 34.3767 1320.62 31.4209C1317.17 28.3367 1311.98 26.7949 1305.06 26.7949H1272.03V65.541Z" fill="var(--fill-0, white)" fill-opacity="0.72"/>
<path d="M96.4258 28.626H30.1572V60.4326H87.5898V83.9512H30.1572V140.818H0V3.18066H96.4258V28.626Z" fill="var(--fill-0, white)" fill-opacity="0.72"/>
<path fill-rule="evenodd" clip-rule="evenodd" d="M187.813 3.18066C193.96 3.18069 199.466 4.20852 204.332 6.26465C209.326 8.19235 213.552 10.8915 217.01 14.3613C220.595 17.8312 223.284 21.8795 225.077 26.5059C226.998 31.0038 227.959 35.8873 227.959 41.1562C227.959 49.2525 226.23 56.2564 222.772 62.168C219.443 68.0796 213.936 72.5778 206.253 75.6621V76.0479C209.966 77.0759 213.04 78.6817 215.473 80.8662C217.906 82.9224 219.891 85.429 221.428 88.3848C222.964 91.212 224.053 94.3604 224.693 97.8301C225.462 101.3 225.973 104.77 226.229 108.24C226.358 110.425 226.486 112.995 226.614 115.951C226.742 118.907 226.934 121.927 227.19 125.011C227.575 128.095 228.086 131.052 228.727 133.879C229.495 136.578 230.584 138.891 231.992 140.818H201.835C200.17 136.449 199.146 131.244 198.762 125.204C198.378 119.164 197.802 113.381 197.033 107.854C196.009 100.658 193.831 95.3892 190.502 92.0479C187.173 88.7066 181.731 87.0352 174.176 87.0352H144.019V140.818H113.861V3.18066H187.813ZM144.019 65.4453H177.057C183.972 65.4453 189.158 63.9027 192.615 60.8184C196.073 57.734 197.802 52.7219 197.802 45.7822C197.802 39.0998 196.073 34.281 192.615 31.3252C189.158 28.2409 183.972 26.6982 177.057 26.6982H144.019V65.4453Z" fill="var(--fill-0, white)" fill-opacity="0.72"/>
<path fill-rule="evenodd" clip-rule="evenodd" d="M311.645 3.18066C320.48 3.18066 328.676 4.59365 336.231 7.4209C343.915 10.2482 350.509 14.4899 356.016 20.1445C361.65 25.7991 366.005 32.8668 369.078 41.3486C372.279 49.8305 373.88 59.7908 373.88 71.2285C373.88 81.2524 372.599 90.5055 370.038 98.9873C367.477 107.469 363.571 114.794 358.321 120.963C353.199 127.131 346.732 132.015 338.921 135.613C331.238 139.083 322.145 140.818 311.645 140.818H252.483V3.18066H311.645ZM282.641 115.373H309.532C313.886 115.373 318.112 114.666 322.21 113.252C326.308 111.838 329.957 109.525 333.158 106.312C336.36 102.971 338.921 98.6655 340.842 93.3965C342.763 88.1276 343.723 81.7021 343.723 74.1201C343.723 67.1804 343.018 60.947 341.609 55.4209C340.329 49.7664 338.152 44.9468 335.079 40.9629C332.006 36.9792 327.908 33.9595 322.786 31.9033C317.792 29.7186 311.581 28.626 304.153 28.626H282.641V115.373Z" fill="var(--fill-0, white)" fill-opacity="0.72"/>
<path d="M469.386 97.8301H469.77L500.118 3.18066H542.568V140.818H514.333V43.2764H513.948L480.334 140.818H457.092L423.478 44.2402H423.094V140.818H394.857V3.18066H437.308L469.386 97.8301Z" fill="var(--fill-0, white)" fill-opacity="0.72"/>
<path d="M614.6 47.9463C627.884 47.9465 638.652 58.715 638.652 71.999C638.652 85.2831 627.884 96.0525 614.6 96.0527C601.315 96.0527 590.546 85.2833 590.546 71.999C590.546 58.7148 601.315 47.9463 614.6 47.9463Z" fill="var(--fill-0, white)" fill-opacity="0.72"/>
</g>
</svg>
