<svg preserveAspectRatio="none" width="100%" height="100%" overflow="visible" style="display: block;" viewBox="0 0 66.6667 66.6667" fill="none" xmlns="http://www.w3.org/2000/svg">
<path id="Linkedin Icon" fill-rule="evenodd" clip-rule="evenodd" d="M66.6667 66.6667H0V0H66.6667V66.6667ZM10.6667 55.6667H20.5033V25.2005H10.6667V55.6667ZM26.0632 55.6667H35.5964L35.6517 46.8757C35.7009 39.0062 35.7327 37.9961 35.957 37.2383C36.5164 35.3495 37.3559 34.2582 38.7337 33.6283C39.8052 33.1384 41.9972 33.0196 43.2513 33.3835C44.86 33.8502 45.9301 35.336 46.3008 37.6165C46.388 38.1535 46.4467 41.9431 46.4473 47.0892L46.4486 55.6667H56V46.3021C56 36.3402 55.9134 34.6684 55.2787 32.3366C54.6349 29.9717 53.1422 27.8403 51.3952 26.7923C48.9227 25.3092 44.59 24.7989 41.418 25.6172C39.2537 26.1758 36.6895 27.893 35.7474 29.4154C35.5831 29.6808 35.39 29.8979 35.3177 29.8984C35.2436 29.8984 35.1869 28.8816 35.1869 27.5495V25.2005H26.0632V55.6667ZM17.655 11.4147C16.7174 10.9833 15.0592 10.8668 14.1452 11.168C12.9936 11.5475 11.9024 12.446 11.2799 13.5267C9.90359 15.917 10.9619 19.143 13.5176 20.347C14.1899 20.6636 14.4951 20.7161 15.6563 20.7161C17.2591 20.7161 18.0273 20.4121 19.0775 19.3633C20.1276 18.3145 20.4316 17.5473 20.4316 15.9466C20.4316 14.7809 20.3798 14.4831 20.054 13.7891C19.582 12.7837 18.6718 11.8828 17.655 11.4147Z" fill="var(--fill-0, white)" fill-opacity="0.92"/>
</svg>
