<svg preserveAspectRatio="none" width="100%" height="100%" overflow="visible" style="display: block;" viewBox="0 0 113.285 24" fill="none" xmlns="http://www.w3.org/2000/svg">
<g id="Logo">
<g id="Frdm">
<path d="M0 6.288H8.032V8.4H2.512V11.04H7.296V12.992H2.512V17.712H0V6.288Z" fill="var(--fill-0, white)"/>
<path d="M11.9964 11.456H14.7484C15.3244 11.456 15.7564 11.328 16.0444 11.072C16.3324 10.816 16.4764 10.4 16.4764 9.824C16.4764 9.26933 16.3324 8.86933 16.0444 8.624C15.7564 8.368 15.3244 8.24 14.7484 8.24H11.9964V11.456ZM9.48438 6.288H15.6444C16.1564 6.288 16.615 6.37333 17.0204 6.544C17.4364 6.704 17.7884 6.928 18.0764 7.216C18.375 7.504 18.599 7.84 18.7484 8.224C18.9084 8.59733 18.9884 9.00267 18.9884 9.44C18.9884 10.112 18.8444 10.6933 18.5564 11.184C18.279 11.6747 17.8204 12.048 17.1804 12.304V12.336C17.4897 12.4213 17.7457 12.5547 17.9484 12.736C18.151 12.9067 18.3164 13.1147 18.4444 13.36C18.5724 13.5947 18.663 13.856 18.7164 14.144C18.7804 14.432 18.823 14.72 18.8444 15.008C18.855 15.1893 18.8657 15.4027 18.8764 15.648C18.887 15.8933 18.903 16.144 18.9244 16.4C18.9564 16.656 18.999 16.9013 19.0524 17.136C19.1164 17.36 19.207 17.552 19.3244 17.712H16.8124C16.6737 17.3493 16.5884 16.9173 16.5564 16.416C16.5244 15.9147 16.4764 15.4347 16.4124 14.976C16.327 14.3787 16.1457 13.9413 15.8684 13.664C15.591 13.3867 15.1377 13.248 14.5084 13.248H11.9964V17.712H9.48438V6.288Z" fill="var(--fill-0, white)"/>
<path d="M23.5433 15.6H25.7833C26.1459 15.6 26.4979 15.5413 26.8393 15.424C27.1806 15.3067 27.4846 15.1147 27.7513 14.848C28.0179 14.5707 28.2313 14.2133 28.3913 13.776C28.5513 13.3387 28.6313 12.8053 28.6313 12.176C28.6313 11.6 28.5726 11.0827 28.4552 10.624C28.3486 10.1547 28.1673 9.75467 27.9113 9.424C27.6553 9.09333 27.3139 8.84267 26.8873 8.672C26.4713 8.49067 25.9539 8.4 25.3353 8.4H23.5433V15.6ZM21.0312 6.288H25.9592C26.6952 6.288 27.3779 6.40533 28.0072 6.64C28.6472 6.87467 29.1966 7.22667 29.6553 7.696C30.1246 8.16533 30.4873 8.752 30.7433 9.456C31.0099 10.16 31.1432 10.9867 31.1432 11.936C31.1432 12.768 31.0366 13.536 30.8232 14.24C30.6099 14.944 30.2846 15.552 29.8472 16.064C29.4206 16.576 28.8819 16.9813 28.2313 17.28C27.5913 17.568 26.8339 17.712 25.9592 17.712H21.0312V6.288Z" fill="var(--fill-0, white)"/>
<path d="M32.8906 6.288H36.4266L39.0986 14.144H39.1306L41.6586 6.288H45.1946V17.712H42.8426V9.616H42.8106L40.0106 17.712H38.0746L35.2746 9.696H35.2426V17.712H32.8906V6.288Z" fill="var(--fill-0, white)"/>
</g>
<circle id="Ellipse 2" cx="51.1946" cy="12" r="2" fill="var(--fill-0, white)" fill-opacity="0.72"/>
<g id="DSGNR">
<path d="M59.7066 15.608H61.9466C62.3093 15.608 62.6613 15.5493 63.0026 15.432C63.344 15.3147 63.648 15.1227 63.9146 14.856C64.1813 14.5787 64.3946 14.2213 64.5546 13.784C64.7146 13.3467 64.7946 12.8133 64.7946 12.184C64.7946 11.608 64.736 11.0907 64.6186 10.632C64.512 10.1627 64.3306 9.76267 64.0746 9.432C63.8186 9.10133 63.4773 8.85067 63.0506 8.68C62.6346 8.49867 62.1173 8.408 61.4986 8.408H59.7066V15.608ZM57.1946 6.296H62.1226C62.8586 6.296 63.5413 6.41333 64.1706 6.648C64.8106 6.88267 65.36 7.23467 65.8186 7.704C66.288 8.17333 66.6506 8.76 66.9066 9.464C67.1733 10.168 67.3066 10.9947 67.3066 11.944C67.3066 12.776 67.2 13.544 66.9866 14.248C66.7733 14.952 66.448 15.56 66.0106 16.072C65.584 16.584 65.0453 16.9893 64.3946 17.288C63.7546 17.576 62.9973 17.72 62.1226 17.72H57.1946V6.296Z" fill="var(--fill-0, white)"/>
<path d="M70.766 13.928C70.766 14.312 70.8353 14.6373 70.974 14.904C71.1127 15.1707 71.294 15.3893 71.518 15.56C71.7527 15.72 72.0247 15.8427 72.334 15.928C72.6433 16.0027 72.9633 16.04 73.294 16.04C73.518 16.04 73.758 16.024 74.014 15.992C74.27 15.9493 74.51 15.8747 74.734 15.768C74.958 15.6613 75.1447 15.5173 75.294 15.336C75.4433 15.144 75.518 14.904 75.518 14.616C75.518 14.3067 75.4167 14.056 75.214 13.864C75.022 13.672 74.766 13.512 74.446 13.384C74.126 13.256 73.7633 13.144 73.358 13.048C72.9527 12.952 72.542 12.8453 72.126 12.728C71.6993 12.6213 71.2833 12.4933 70.878 12.344C70.4727 12.184 70.11 11.9813 69.79 11.736C69.47 11.4907 69.2087 11.1867 69.006 10.824C68.814 10.4507 68.718 10.0027 68.718 9.48C68.718 8.89333 68.8407 8.38667 69.086 7.96C69.342 7.52267 69.6727 7.16 70.078 6.872C70.4833 6.584 70.942 6.37067 71.454 6.232C71.966 6.09333 72.478 6.024 72.99 6.024C73.5873 6.024 74.158 6.09333 74.702 6.232C75.2567 6.36 75.7473 6.57333 76.174 6.872C76.6007 7.17067 76.9367 7.55467 77.182 8.024C77.438 8.48267 77.566 9.04267 77.566 9.704H75.134C75.1127 9.36267 75.038 9.08 74.91 8.856C74.7927 8.632 74.6327 8.456 74.43 8.328C74.2273 8.2 73.9927 8.10933 73.726 8.056C73.47 8.00267 73.1873 7.976 72.878 7.976C72.6753 7.976 72.4727 7.99733 72.27 8.04C72.0673 8.08267 71.8807 8.15733 71.71 8.264C71.55 8.37067 71.4167 8.504 71.31 8.664C71.2033 8.824 71.15 9.02667 71.15 9.272C71.15 9.496 71.1927 9.67733 71.278 9.816C71.3633 9.95467 71.5287 10.0827 71.774 10.2C72.03 10.3173 72.3767 10.4347 72.814 10.552C73.262 10.6693 73.8433 10.8187 74.558 11C74.7713 11.0427 75.0647 11.1227 75.438 11.24C75.822 11.3467 76.2007 11.5227 76.574 11.768C76.9473 12.0133 77.2673 12.344 77.534 12.76C77.8113 13.1653 77.95 13.688 77.95 14.328C77.95 14.8507 77.8487 15.336 77.646 15.784C77.4433 16.232 77.1393 16.6213 76.734 16.952C76.3393 17.272 75.8433 17.5227 75.246 17.704C74.6593 17.8853 73.9767 17.976 73.198 17.976C72.5687 17.976 71.9553 17.896 71.358 17.736C70.7713 17.5867 70.2487 17.3467 69.79 17.016C69.342 16.6853 68.9847 16.264 68.718 15.752C68.4513 15.24 68.3233 14.632 68.334 13.928H70.766Z" fill="var(--fill-0, white)"/>
<path d="M87.7006 16.424C87.2526 17 86.7566 17.4053 86.2126 17.64C85.6686 17.864 85.1193 17.976 84.5646 17.976C83.69 17.976 82.9006 17.8267 82.1966 17.528C81.5033 17.2187 80.9166 16.7973 80.4366 16.264C79.9566 15.7307 79.5886 15.1067 79.3326 14.392C79.0766 13.6667 78.9486 12.888 78.9486 12.056C78.9486 11.2027 79.0766 10.4133 79.3326 9.688C79.5886 8.952 79.9566 8.312 80.4366 7.768C80.9166 7.224 81.5033 6.79733 82.1966 6.488C82.9006 6.17867 83.69 6.024 84.5646 6.024C85.1513 6.024 85.7166 6.11467 86.2606 6.296C86.8153 6.46667 87.3113 6.72267 87.7486 7.064C88.1966 7.40533 88.5646 7.82667 88.8526 8.328C89.1406 8.82933 89.3166 9.40533 89.3806 10.056H86.9806C86.8313 9.416 86.5433 8.936 86.1166 8.616C85.69 8.296 85.1726 8.136 84.5646 8.136C83.9993 8.136 83.5193 8.248 83.1246 8.472C82.73 8.68533 82.41 8.97867 82.1646 9.352C81.9193 9.71467 81.738 10.1307 81.6206 10.6C81.514 11.0693 81.4606 11.5547 81.4606 12.056C81.4606 12.536 81.514 13.0053 81.6206 13.464C81.738 13.912 81.9193 14.3173 82.1646 14.68C82.41 15.0427 82.73 15.336 83.1246 15.56C83.5193 15.7733 83.9993 15.88 84.5646 15.88C85.3966 15.88 86.0366 15.672 86.4846 15.256C86.9433 14.8293 87.21 14.216 87.2846 13.416H84.7566V11.544H89.5566V17.72H87.9566L87.7006 16.424Z" fill="var(--fill-0, white)"/>
<path d="M91.5853 6.296H94.0812L98.8493 13.96H98.8813V6.296H101.233V17.72H98.7213L93.9692 10.072H93.9373V17.72H91.5853V6.296Z" fill="var(--fill-0, white)"/>
<path d="M105.957 11.464H108.709C109.285 11.464 109.717 11.336 110.005 11.08C110.293 10.824 110.437 10.408 110.437 9.832C110.437 9.27733 110.293 8.87733 110.005 8.632C109.717 8.376 109.285 8.248 108.709 8.248H105.957V11.464ZM103.445 6.296H109.605C110.117 6.296 110.575 6.38133 110.981 6.552C111.397 6.712 111.749 6.936 112.037 7.224C112.335 7.512 112.559 7.848 112.709 8.232C112.869 8.60533 112.949 9.01067 112.949 9.448C112.949 10.12 112.805 10.7013 112.517 11.192C112.239 11.6827 111.781 12.056 111.141 12.312V12.344C111.45 12.4293 111.706 12.5627 111.909 12.744C112.111 12.9147 112.277 13.1227 112.405 13.368C112.533 13.6027 112.623 13.864 112.677 14.152C112.741 14.44 112.783 14.728 112.805 15.016C112.815 15.1973 112.826 15.4107 112.837 15.656C112.847 15.9013 112.863 16.152 112.885 16.408C112.917 16.664 112.959 16.9093 113.013 17.144C113.077 17.368 113.167 17.56 113.285 17.72H110.773C110.634 17.3573 110.549 16.9253 110.517 16.424C110.485 15.9227 110.437 15.4427 110.373 14.984C110.287 14.3867 110.106 13.9493 109.829 13.672C109.551 13.3947 109.098 13.256 108.469 13.256H105.957V17.72H103.445V6.296Z" fill="var(--fill-0, white)"/>
</g>
</g>
</svg>
