<svg width="24" height="78" viewBox="0 0 24 78" fill="none" xmlns="http://www.w3.org/2000/svg">
<mask id="mask0_90_124" style="mask-type:luminance" maskUnits="userSpaceOnUse" x="8" y="8" width="15" height="55">
<rect x="8.49609" y="8.97314" width="14.0356" height="53.4235" fill="white"/>
</mask>
<g mask="url(#mask0_90_124)">
<path d="M13.8711 9.81592H18.2277V59.6149L15.9944 61.4738L13.8711 59.6149V9.81592Z" fill="url(#paint0_linear_90_124)"/>
</g>
<path d="M1.57812 59.6152H13.8699L15.8649 61.426L13.8699 63.9719H1.57812V59.6152Z" fill="#D9D9D9"/>
<mask id="mask1_90_124" style="mask-type:luminance" maskUnits="userSpaceOnUse" x="9" y="55" width="10" height="9">
<rect x="9.51367" y="55.2583" width="8.71325" height="8.71325" rx="4.35663" fill="white"/>
</mask>
<g mask="url(#mask1_90_124)">
<rect x="13.8711" y="59.6152" width="4.35663" height="4.35663" fill="#D9D9D9"/>
</g>
<g filter="url(#filter0_ii_90_124)">
<circle cx="16.1227" cy="7.87857" r="7.87857" fill="#D82924"/>
</g>
<g filter="url(#filter1_f_90_124)" style="mix-blend-mode:overlay">
<circle cx="15.5419" cy="4.70844" r="3.01594" transform="rotate(45.9594 15.5419 4.70844)" fill="white" style="mix-blend-mode:overlay"/>
</g>
<g filter="url(#filter2_f_90_124)" style="mix-blend-mode:overlay">
<path d="M20.4798 12.4824C20.1668 12.1588 19.8539 11.8351 19.5409 11.5115C19.178 11.8785 18.7502 12.1781 18.2776 12.3951C16.3703 13.2893 13.8868 12.6933 12.3474 11.1253C10.3476 9.24426 9.91566 5.68398 11.9675 3.68017C13.9494 1.60674 17.6348 1.97347 19.6385 4.07436C21.2982 5.68578 22.0105 8.35384 21.0155 10.539C20.7725 11.0785 20.4314 11.5747 20.0103 11.997C20.447 11.5909 20.8097 11.1051 21.0765 10.5679C22.1705 8.39445 21.5636 5.60214 19.8812 3.83964C17.8713 1.5608 13.8884 0.909565 11.4981 3.19473C9.0474 5.41467 9.37607 9.55244 11.6192 11.8295C13.3398 13.7147 16.2695 14.62 18.7883 13.5722C19.4089 13.3158 19.9861 12.945 20.4798 12.4824ZM19.5409 11.5115L20.4798 12.4824L20.0103 11.997L19.5409 11.5115Z" fill="white" style="mix-blend-mode:overlay"/>
</g>
<g filter="url(#filter3_f_90_124)" style="mix-blend-mode:overlay">
<ellipse cx="14.5612" cy="3.69391" rx="1.60465" ry="2.07259" transform="rotate(45.9594 14.5612 3.69391)" fill="white" style="mix-blend-mode:overlay"/>
</g>
<defs>
<filter id="filter0_ii_90_124" x="8.24414" y="-0.900408" width="15.7578" height="16.6577" filterUnits="userSpaceOnUse" color-interpolation-filters="sRGB">
<feFlood flood-opacity="0" result="BackgroundImageFix"/>
<feBlend mode="normal" in="SourceGraphic" in2="BackgroundImageFix" result="shape"/>
<feColorMatrix in="SourceAlpha" type="matrix" values="0 0 0 0 0 0 0 0 0 0 0 0 0 0 0 0 0 0 127 0" result="hardAlpha"/>
<feMorphology radius="0.675306" operator="erode" in="SourceAlpha" result="effect1_innerShadow_90_124"/>
<feOffset dy="-0.900408"/>
<feGaussianBlur stdDeviation="0.450204"/>
<feComposite in2="hardAlpha" operator="arithmetic" k2="-1" k3="1"/>
<feColorMatrix type="matrix" values="0 0 0 0 0 0 0 0 0 0 0 0 0 0 0 0 0 0 0.25 0"/>
<feBlend mode="normal" in2="shape" result="effect1_innerShadow_90_124"/>
<feColorMatrix in="SourceAlpha" type="matrix" values="0 0 0 0 0 0 0 0 0 0 0 0 0 0 0 0 0 0 127 0" result="hardAlpha"/>
<feMorphology radius="0.450204" operator="erode" in="SourceAlpha" result="effect2_innerShadow_90_124"/>
<feOffset/>
<feGaussianBlur stdDeviation="0.450204"/>
<feComposite in2="hardAlpha" operator="arithmetic" k2="-1" k3="1"/>
<feColorMatrix type="matrix" values="0 0 0 0 1 0 0 0 0 1 0 0 0 0 1 0 0 0 0.5 0"/>
<feBlend mode="lighten" in2="effect1_innerShadow_90_124" result="effect2_innerShadow_90_124"/>
</filter>
<filter id="filter1_f_90_124" x="11.625" y="0.791975" width="7.83402" height="7.83304" filterUnits="userSpaceOnUse" color-interpolation-filters="sRGB">
<feFlood flood-opacity="0" result="BackgroundImageFix"/>
<feBlend mode="normal" in="SourceGraphic" in2="BackgroundImageFix" result="shape"/>
<feGaussianBlur stdDeviation="0.450204" result="effect1_foregroundBlur_90_124"/>
</filter>
<filter id="filter2_f_90_124" x="8.89451" y="0.871077" width="13.6328" height="14.044" filterUnits="userSpaceOnUse" color-interpolation-filters="sRGB">
<feFlood flood-opacity="0" result="BackgroundImageFix"/>
<feBlend mode="normal" in="SourceGraphic" in2="BackgroundImageFix" result="shape"/>
<feGaussianBlur stdDeviation="0.450204" result="effect1_foregroundBlur_90_124"/>
</filter>
<filter id="filter3_f_90_124" x="11.7988" y="0.947737" width="5.52347" height="5.49222" filterUnits="userSpaceOnUse" color-interpolation-filters="sRGB">
<feFlood flood-opacity="0" result="BackgroundImageFix"/>
<feBlend mode="normal" in="SourceGraphic" in2="BackgroundImageFix" result="shape"/>
<feGaussianBlur stdDeviation="0.450204" result="effect1_foregroundBlur_90_124"/>
</filter>
<linearGradient id="paint0_linear_90_124" x1="12.7311" y1="51.8888" x2="26.1056" y2="6.80246" gradientUnits="userSpaceOnUse">
<stop stop-color="#D9D9D9"/>
<stop offset="1" stop-color="#737373"/>
</linearGradient>
</defs>
</svg>
