<svg width="155" height="78" viewBox="0 0 155 78" fill="none" xmlns="http://www.w3.org/2000/svg">
<mask id="mask0_97_569" style="mask-type:luminance" maskUnits="userSpaceOnUse" x="139" y="8" width="15" height="55">
<rect x="139.496" y="8.97314" width="14.0356" height="53.4235" fill="white"/>
</mask>
<g mask="url(#mask0_97_569)">
<path d="M144.871 9.81592H149.228V59.6149L146.994 61.4738L144.871 59.6149V9.81592Z" fill="url(#paint0_linear_97_569)"/>
</g>
<path d="M132.579 59.6152H144.871L146.866 61.426L144.871 63.9719H132.579V59.6152Z" fill="#D9D9D9"/>
<mask id="mask1_97_569" style="mask-type:luminance" maskUnits="userSpaceOnUse" x="140" y="55" width="10" height="9">
<rect x="140.514" y="55.2583" width="8.71325" height="8.71325" rx="4.35663" fill="white"/>
</mask>
<g mask="url(#mask1_97_569)">
<rect x="144.871" y="59.6152" width="4.35663" height="4.35663" fill="#D9D9D9"/>
</g>
<g filter="url(#filter0_ii_97_569)">
<circle cx="147.124" cy="7.87857" r="7.87857" fill="#D82924"/>
</g>
<g filter="url(#filter1_f_97_569)" style="mix-blend-mode:overlay">
<circle cx="146.542" cy="4.70844" r="3.01594" transform="rotate(45.9594 146.542 4.70844)" fill="white" style="mix-blend-mode:overlay"/>
</g>
<g filter="url(#filter2_f_97_569)" style="mix-blend-mode:overlay">
<path d="M151.481 12.4824C151.168 12.1588 150.855 11.8351 150.542 11.5115C150.179 11.8785 149.751 12.1781 149.279 12.3951C147.371 13.2893 144.888 12.6933 143.348 11.1253C141.349 9.24426 140.917 5.68398 142.969 3.68017C144.95 1.60674 148.636 1.97347 150.639 4.07436C152.299 5.68578 153.011 8.35384 152.016 10.539C151.773 11.0785 151.432 11.5747 151.011 11.997C151.448 11.5909 151.811 11.1051 152.077 10.5679C153.171 8.39445 152.565 5.60214 150.882 3.83964C148.872 1.5608 144.889 0.909565 142.499 3.19473C140.048 5.41467 140.377 9.55244 142.62 11.8295C144.341 13.7147 147.271 14.62 149.789 13.5722C150.41 13.3158 150.987 12.945 151.481 12.4824ZM150.542 11.5115L151.481 12.4824L151.011 11.997L150.542 11.5115Z" fill="white" style="mix-blend-mode:overlay"/>
</g>
<g filter="url(#filter3_f_97_569)" style="mix-blend-mode:overlay">
<ellipse cx="145.562" cy="3.69391" rx="1.60465" ry="2.07259" transform="rotate(45.9594 145.562 3.69391)" fill="white" style="mix-blend-mode:overlay"/>
</g>
<rect y="46" width="142" height="32" rx="12" fill="#E0322C"/>
<path d="M22.064 57.004H26.208C26.9733 57.004 27.636 57.1347 28.196 57.396C28.756 57.6573 29.2133 58.0167 29.568 58.474C29.9227 58.922 30.184 59.4493 30.352 60.056C30.5293 60.6627 30.618 61.3113 30.618 62.002C30.618 62.6927 30.5293 63.3413 30.352 63.948C30.184 64.5547 29.9227 65.0867 29.568 65.544C29.2133 65.992 28.756 66.3467 28.196 66.608C27.636 66.8693 26.9733 67 26.208 67H22.064V57.004ZM23.814 65.572H25.536C26.2173 65.572 26.7727 65.4833 27.202 65.306C27.6407 65.1193 27.9813 64.8673 28.224 64.55C28.476 64.2233 28.644 63.8453 28.728 63.416C28.8213 62.9773 28.868 62.506 28.868 62.002C28.868 61.498 28.8213 61.0313 28.728 60.602C28.644 60.1633 28.476 59.7853 28.224 59.468C27.9813 59.1413 27.6407 58.8893 27.202 58.712C26.7727 58.5253 26.2173 58.432 25.536 58.432H23.814V65.572ZM36.4235 58.194C35.8915 58.194 35.4295 58.3013 35.0375 58.516C34.6548 58.7307 34.3422 59.02 34.0995 59.384C33.8568 59.7387 33.6748 60.1447 33.5535 60.602C33.4415 61.0593 33.3855 61.526 33.3855 62.002C33.3855 62.478 33.4415 62.9447 33.5535 63.402C33.6748 63.8593 33.8568 64.27 34.0995 64.634C34.3422 64.9887 34.6548 65.2733 35.0375 65.488C35.4295 65.7027 35.8915 65.81 36.4235 65.81C36.9555 65.81 37.4128 65.7027 37.7955 65.488C38.1875 65.2733 38.5048 64.9887 38.7475 64.634C38.9902 64.27 39.1675 63.8593 39.2795 63.402C39.4008 62.9447 39.4615 62.478 39.4615 62.002C39.4615 61.526 39.4008 61.0593 39.2795 60.602C39.1675 60.1447 38.9902 59.7387 38.7475 59.384C38.5048 59.02 38.1875 58.7307 37.7955 58.516C37.4128 58.3013 36.9555 58.194 36.4235 58.194ZM36.4235 56.766C37.1702 56.766 37.8375 56.906 38.4255 57.186C39.0228 57.466 39.5268 57.844 39.9375 58.32C40.3482 58.796 40.6608 59.3513 40.8755 59.986C41.0995 60.6207 41.2115 61.2927 41.2115 62.002C41.2115 62.7207 41.0995 63.3973 40.8755 64.032C40.6608 64.6667 40.3482 65.222 39.9375 65.698C39.5268 66.174 39.0228 66.552 38.4255 66.832C37.8375 67.1027 37.1702 67.238 36.4235 67.238C35.6768 67.238 35.0048 67.1027 34.4075 66.832C33.8195 66.552 33.3202 66.174 32.9095 65.698C32.4988 65.222 32.1815 64.6667 31.9575 64.032C31.7428 63.3973 31.6355 62.7207 31.6355 62.002C31.6355 61.2927 31.7428 60.6207 31.9575 59.986C32.1815 59.3513 32.4988 58.796 32.9095 58.32C33.3202 57.844 33.8195 57.466 34.4075 57.186C35.0048 56.906 35.6768 56.766 36.4235 56.766ZM46.6307 57.004H48.4787L53.0427 64.368H53.0707V57.004H54.7367V67H52.8887L48.3387 59.65H48.2967V67H46.6307V57.004ZM61.0602 58.194C60.5282 58.194 60.0662 58.3013 59.6742 58.516C59.2916 58.7307 58.9789 59.02 58.7362 59.384C58.4936 59.7387 58.3116 60.1447 58.1902 60.602C58.0782 61.0593 58.0222 61.526 58.0222 62.002C58.0222 62.478 58.0782 62.9447 58.1902 63.402C58.3116 63.8593 58.4936 64.27 58.7362 64.634C58.9789 64.9887 59.2916 65.2733 59.6742 65.488C60.0662 65.7027 60.5282 65.81 61.0602 65.81C61.5922 65.81 62.0496 65.7027 62.4322 65.488C62.8242 65.2733 63.1416 64.9887 63.3842 64.634C63.6269 64.27 63.8042 63.8593 63.9162 63.402C64.0376 62.9447 64.0982 62.478 64.0982 62.002C64.0982 61.526 64.0376 61.0593 63.9162 60.602C63.8042 60.1447 63.6269 59.7387 63.3842 59.384C63.1416 59.02 62.8242 58.7307 62.4322 58.516C62.0496 58.3013 61.5922 58.194 61.0602 58.194ZM61.0602 56.766C61.8069 56.766 62.4742 56.906 63.0622 57.186C63.6596 57.466 64.1636 57.844 64.5742 58.32C64.9849 58.796 65.2976 59.3513 65.5122 59.986C65.7362 60.6207 65.8482 61.2927 65.8482 62.002C65.8482 62.7207 65.7362 63.3973 65.5122 64.032C65.2976 64.6667 64.9849 65.222 64.5742 65.698C64.1636 66.174 63.6596 66.552 63.0622 66.832C62.4742 67.1027 61.8069 67.238 61.0602 67.238C60.3136 67.238 59.6416 67.1027 59.0442 66.832C58.4562 66.552 57.9569 66.174 57.5462 65.698C57.1356 65.222 56.8182 64.6667 56.5942 64.032C56.3796 63.3973 56.2722 62.7207 56.2722 62.002C56.2722 61.2927 56.3796 60.6207 56.5942 59.986C56.8182 59.3513 57.1356 58.796 57.5462 58.32C57.9569 57.844 58.4562 57.466 59.0442 57.186C59.6416 56.906 60.3136 56.766 61.0602 56.766ZM66.489 57.004H74.581V58.516H71.403V67H69.653V58.516H66.489V57.004ZM86.3843 60.182C86.3096 59.8927 86.2069 59.6267 86.0763 59.384C85.9456 59.1413 85.7776 58.9313 85.5723 58.754C85.3669 58.5767 85.1243 58.4413 84.8443 58.348C84.5736 58.2453 84.2563 58.194 83.8923 58.194C83.3603 58.194 82.8983 58.3013 82.5063 58.516C82.1236 58.7307 81.8109 59.02 81.5683 59.384C81.3256 59.7387 81.1436 60.1447 81.0223 60.602C80.9103 61.0593 80.8543 61.526 80.8543 62.002C80.8543 62.478 80.9103 62.9447 81.0223 63.402C81.1436 63.8593 81.3256 64.27 81.5683 64.634C81.8109 64.9887 82.1236 65.2733 82.5063 65.488C82.8983 65.7027 83.3603 65.81 83.8923 65.81C84.2843 65.81 84.6296 65.7447 84.9283 65.614C85.2269 65.474 85.4836 65.2873 85.6983 65.054C85.9129 64.8113 86.0809 64.5313 86.2023 64.214C86.3236 63.8967 86.4029 63.556 86.4403 63.192H88.1483C88.1109 63.7893 87.9803 64.3353 87.7563 64.83C87.5416 65.3247 87.2476 65.754 86.8743 66.118C86.5009 66.4727 86.0623 66.748 85.5583 66.944C85.0543 67.14 84.4989 67.238 83.8923 67.238C83.1456 67.238 82.4736 67.1027 81.8763 66.832C81.2883 66.552 80.7889 66.174 80.3783 65.698C79.9676 65.222 79.6503 64.6667 79.4263 64.032C79.2116 63.3973 79.1043 62.7207 79.1043 62.002C79.1043 61.2927 79.2116 60.6207 79.4263 59.986C79.6503 59.3513 79.9676 58.796 80.3783 58.32C80.7889 57.844 81.2883 57.466 81.8763 57.186C82.4736 56.906 83.1456 56.766 83.8923 56.766C84.4523 56.766 84.9796 56.8453 85.4743 57.004C85.9689 57.1533 86.4029 57.3773 86.7763 57.676C87.1589 57.9653 87.4669 58.32 87.7003 58.74C87.9336 59.16 88.0783 59.6407 88.1343 60.182H86.3843ZM89.7398 57.004H91.4898V65.488H96.5718V67H89.7398V57.004ZM97.7788 57.004H99.5288V67H97.7788V57.004ZM108.423 60.182C108.349 59.8927 108.246 59.6267 108.115 59.384C107.985 59.1413 107.817 58.9313 107.611 58.754C107.406 58.5767 107.163 58.4413 106.883 58.348C106.613 58.2453 106.295 58.194 105.931 58.194C105.399 58.194 104.937 58.3013 104.545 58.516C104.163 58.7307 103.85 59.02 103.607 59.384C103.365 59.7387 103.183 60.1447 103.061 60.602C102.949 61.0593 102.893 61.526 102.893 62.002C102.893 62.478 102.949 62.9447 103.061 63.402C103.183 63.8593 103.365 64.27 103.607 64.634C103.85 64.9887 104.163 65.2733 104.545 65.488C104.937 65.7027 105.399 65.81 105.931 65.81C106.323 65.81 106.669 65.7447 106.967 65.614C107.266 65.474 107.523 65.2873 107.737 65.054C107.952 64.8113 108.12 64.5313 108.241 64.214C108.363 63.8967 108.442 63.556 108.479 63.192H110.187C110.15 63.7893 110.019 64.3353 109.795 64.83C109.581 65.3247 109.287 65.754 108.913 66.118C108.54 66.4727 108.101 66.748 107.597 66.944C107.093 67.14 106.538 67.238 105.931 67.238C105.185 67.238 104.513 67.1027 103.915 66.832C103.327 66.552 102.828 66.174 102.417 65.698C102.007 65.222 101.689 64.6667 101.465 64.032C101.251 63.3973 101.143 62.7207 101.143 62.002C101.143 61.2927 101.251 60.6207 101.465 59.986C101.689 59.3513 102.007 58.796 102.417 58.32C102.828 57.844 103.327 57.466 103.915 57.186C104.513 56.906 105.185 56.766 105.931 56.766C106.491 56.766 107.019 56.8453 107.513 57.004C108.008 57.1533 108.442 57.3773 108.815 57.676C109.198 57.9653 109.506 58.32 109.739 58.74C109.973 59.16 110.117 59.6407 110.173 60.182H108.423ZM111.779 57.004H113.529V61.554L117.981 57.004H120.137L116.147 60.994L120.417 67H118.233L114.957 62.226L113.529 63.64V67H111.779V57.004Z" fill="white"/>
<defs>
<filter id="filter0_ii_97_569" x="139.245" y="-0.900408" width="15.7568" height="16.6577" filterUnits="userSpaceOnUse" color-interpolation-filters="sRGB">
<feFlood flood-opacity="0" result="BackgroundImageFix"/>
<feBlend mode="normal" in="SourceGraphic" in2="BackgroundImageFix" result="shape"/>
<feColorMatrix in="SourceAlpha" type="matrix" values="0 0 0 0 0 0 0 0 0 0 0 0 0 0 0 0 0 0 127 0" result="hardAlpha"/>
<feMorphology radius="0.675306" operator="erode" in="SourceAlpha" result="effect1_innerShadow_97_569"/>
<feOffset dy="-0.900408"/>
<feGaussianBlur stdDeviation="0.450204"/>
<feComposite in2="hardAlpha" operator="arithmetic" k2="-1" k3="1"/>
<feColorMatrix type="matrix" values="0 0 0 0 0 0 0 0 0 0 0 0 0 0 0 0 0 0 0.25 0"/>
<feBlend mode="normal" in2="shape" result="effect1_innerShadow_97_569"/>
<feColorMatrix in="SourceAlpha" type="matrix" values="0 0 0 0 0 0 0 0 0 0 0 0 0 0 0 0 0 0 127 0" result="hardAlpha"/>
<feMorphology radius="0.450204" operator="erode" in="SourceAlpha" result="effect2_innerShadow_97_569"/>
<feOffset/>
<feGaussianBlur stdDeviation="0.450204"/>
<feComposite in2="hardAlpha" operator="arithmetic" k2="-1" k3="1"/>
<feColorMatrix type="matrix" values="0 0 0 0 1 0 0 0 0 1 0 0 0 0 1 0 0 0 0.5 0"/>
<feBlend mode="lighten" in2="effect1_innerShadow_97_569" result="effect2_innerShadow_97_569"/>
</filter>
<filter id="filter1_f_97_569" x="142.626" y="0.791975" width="7.83207" height="7.83304" filterUnits="userSpaceOnUse" color-interpolation-filters="sRGB">
<feFlood flood-opacity="0" result="BackgroundImageFix"/>
<feBlend mode="normal" in="SourceGraphic" in2="BackgroundImageFix" result="shape"/>
<feGaussianBlur stdDeviation="0.450204" result="effect1_foregroundBlur_97_569"/>
</filter>
<filter id="filter2_f_97_569" x="139.895" y="0.871077" width="13.6338" height="14.044" filterUnits="userSpaceOnUse" color-interpolation-filters="sRGB">
<feFlood flood-opacity="0" result="BackgroundImageFix"/>
<feBlend mode="normal" in="SourceGraphic" in2="BackgroundImageFix" result="shape"/>
<feGaussianBlur stdDeviation="0.450204" result="effect1_foregroundBlur_97_569"/>
</filter>
<filter id="filter3_f_97_569" x="142.801" y="0.947737" width="5.52347" height="5.49222" filterUnits="userSpaceOnUse" color-interpolation-filters="sRGB">
<feFlood flood-opacity="0" result="BackgroundImageFix"/>
<feBlend mode="normal" in="SourceGraphic" in2="BackgroundImageFix" result="shape"/>
<feGaussianBlur stdDeviation="0.450204" result="effect1_foregroundBlur_97_569"/>
</filter>
<linearGradient id="paint0_linear_97_569" x1="143.731" y1="51.8888" x2="157.106" y2="6.80246" gradientUnits="userSpaceOnUse">
<stop stop-color="#D9D9D9"/>
<stop offset="1" stop-color="#737373"/>
</linearGradient>
</defs>
</svg>
