<svg preserveAspectRatio="none" width="100%" height="100%" overflow="visible" style="display: block;" viewBox="0 0 66.6667 66.6667" fill="none" xmlns="http://www.w3.org/2000/svg">
<g id="Telegram icon">
<path d="M46.7891 22.2533C47.7355 22.3148 47.7589 22.2921 37.9811 30.832C30.209 37.6204 28.7801 38.9119 28.722 39.2012C28.6843 39.3893 28.5148 41.033 28.3457 42.8535C28.1767 44.6724 28.0107 46.1595 27.9766 46.1608C27.9426 46.1593 27.1181 43.7881 26.1445 40.8913C24.8005 36.8923 24.4059 35.5973 24.5033 35.5072C24.7214 35.3092 45.7027 22.5302 46.0664 22.3737C46.2531 22.2936 46.5784 22.2395 46.7891 22.2533Z" fill="var(--fill-0, white)" fill-opacity="0.92"/>
<path fill-rule="evenodd" clip-rule="evenodd" d="M66.6667 66.6667H0V0H66.6667V66.6667ZM54.6667 18.0918C54.6666 16.7008 53.6366 15.764 52.4238 16.0521C52.0007 16.1526 13.9106 30.4001 13.3333 30.6738C13.012 30.8262 12.5797 31.1326 12.3724 31.3548C11.7882 31.9807 11.8928 32.5447 12.679 33.0104C12.8756 33.1266 15.2017 33.8747 17.849 34.6732C20.4957 35.4715 22.7282 36.1597 22.8119 36.2031C22.8938 36.246 23.8671 38.969 24.9753 42.2539C26.0832 45.5385 27.0644 48.2981 27.1556 48.3867C27.3948 48.618 28.5716 48.5911 29.0638 48.3431C29.2745 48.237 30.2591 47.3818 31.252 46.4427C32.2449 45.5037 33.433 44.3847 33.8919 43.9557L34.7259 43.1758L39.5814 46.6543C42.2518 48.5677 44.6718 50.2478 44.959 50.3874C46.1125 50.9484 47.1982 50.6486 47.7116 49.627C47.9166 49.2187 48.8514 45.1348 51.3275 33.832C53.1641 25.4478 54.6667 18.3645 54.6667 18.0918Z" fill="var(--fill-0, white)" fill-opacity="0.92"/>
</g>
</svg>
