<svg width="24" height="24" viewBox="0 0 24 24" fill="none" xmlns="http://www.w3.org/2000/svg">
<path d="M0 4C0 1.79086 1.79086 0 4 0H20C22.2091 0 24 1.79086 24 4V20C24 22.2091 22.2091 24 20 24H4C1.79086 24 0 22.2091 0 20V4Z" fill="black"/>
<path fill-rule="evenodd" clip-rule="evenodd" d="M5.69141 12.9229C7.41825 12.9229 8.74824 13.2848 9.67969 14.0088C10.611 14.7328 11.0762 15.8361 11.0762 17.3184C11.0762 18.0939 10.9719 18.7835 10.7627 19.3867C10.5534 19.9814 10.2286 20.4857 9.78906 20.8994C9.34951 21.3045 8.78963 21.6146 8.10938 21.8301C7.4291 22.0455 6.62286 22.1533 5.69141 22.1533H1.8457V12.9229H5.69141ZM3.33691 21.1191H5.81738C5.98481 21.1191 6.19418 21.111 6.44531 21.0938C6.69649 21.0679 6.96352 21.016 7.24609 20.9385C7.52866 20.8523 7.80603 20.7313 8.07812 20.5762C8.36062 20.4211 8.6123 20.2105 8.83203 19.9434C9.05181 19.6762 9.22918 19.3437 9.36523 18.9473C9.51173 18.5422 9.58496 18.0551 9.58496 17.4863C9.58494 16.9348 9.5169 16.4436 9.38086 16.0127C9.25527 15.5732 9.0408 15.202 8.7373 14.9004C8.4444 14.5904 8.06238 14.3582 7.5918 14.2031C7.12084 14.0394 6.53937 13.957 5.84863 13.957H3.33691V21.1191Z" fill="white"/>
<path d="M17.5332 20.6797L20.4668 12.9229H22.1543V22.1533H20.9863V14.4746H20.96L18.0654 22.1533H17.0137L14.1182 14.4746H14.0918V22.1533H12.9238V12.9229H14.6113L17.5332 20.6797Z" fill="white"/>
<path d="M11.0762 2.88086H3.71582V5.81543H10.1709V6.84961H3.71582V11.0771H1.8457V1.8457H11.0762V2.88086Z" fill="white"/>
<path fill-rule="evenodd" clip-rule="evenodd" d="M18.29 1.8457C19.3758 1.84573 20.2223 2.06136 20.8291 2.49219C21.4466 2.92311 21.7549 3.51388 21.7549 4.26367C21.7549 4.82379 21.5956 5.31504 21.2764 5.7373C20.9677 6.15955 20.4672 6.44836 19.7754 6.60352V6.62988C20.1053 6.6816 20.371 6.76806 20.5732 6.88867C20.7862 7.00934 20.9512 7.15575 21.0684 7.32812C21.1961 7.49186 21.2866 7.67698 21.3398 7.88379C21.4037 8.09064 21.4515 8.30619 21.4834 8.53027C21.5047 8.75418 21.5216 8.98233 21.5322 9.21484C21.5429 9.4475 21.5688 9.67635 21.6113 9.90039C21.6539 10.1245 21.7126 10.34 21.7871 10.5469C21.8723 10.7451 21.9946 10.922 22.1543 11.0771H20.4619C20.3555 10.9824 20.2809 10.853 20.2383 10.6895C20.2064 10.5258 20.1845 10.3446 20.1738 10.1465C20.1632 9.93963 20.1532 9.71904 20.1426 9.48633C20.1319 9.25386 20.1 9.02563 20.0469 8.80176C20.0043 8.57767 19.9506 8.3662 19.8867 8.16797C19.8228 7.96118 19.7214 7.78418 19.583 7.6377C19.4446 7.48274 19.2634 7.36248 19.04 7.27637C18.8166 7.18165 18.5188 7.13382 18.1465 7.13379H14.4414V11.0771H12.9238V1.8457H18.29ZM14.4414 6.09961H17.6035C17.9547 6.09959 18.2901 6.07823 18.6094 6.03516C18.9287 5.99206 19.2053 5.90969 19.4395 5.78906C19.6843 5.65978 19.8762 5.492 20.0146 5.28516C20.1637 5.06975 20.2382 4.794 20.2383 4.45801C20.2383 3.99259 20.0782 3.61335 19.7588 3.32031C19.4394 3.02727 18.9233 2.88086 18.21 2.88086H14.4414V6.09961Z" fill="white"/>
</svg>
